# xmcd
#
# Track frame offsets: 
#        150
#        11869
#        26016
#        44832
#        63986
#        74390
#        90554
#        104773
#        118666
#        130274
#        145374
#        160169
#
# Disc length: 2411 seconds
#
# Revision: 0
# Processed by: cddbd v1.5.2PL0 Copyright (c) Steve Scherf et al.
# Submitted via: ExactAudioCopy v0.95b4
#
DISCID=b309690c
DTITLE=FarCry - Take A Ride!
DYEAR=2006
DGENRE=Country
TTITLE0=Black Hat
TTITLE1=Lean A Little Toward Redneck
TTITLE2=Pretending You're Not Gone
TTITLE3=Never Take It Back
TTITLE4=FARCRY
TTITLE5=I'm Not Done Crying Yet
TTITLE6=Wingin' It
TTITLE7=Don't Lie To Me
TTITLE8=She's The Reason
TTITLE9=Thrown Away
TTITLE10=Good Friends And Cold Beer
TTITLE11=Keep Holdin' On (While I'm Letting Go)
EXTD=
EXTT0=
EXTT1=
EXTT2=
EXTT3=
EXTT4=
EXTT5=
EXTT6=
EXTT7=
EXTT8=
EXTT9=
EXTT10=
EXTT11=
PLAYORDER=
